nColumns=19
nRows=69
DataType=double
version=3
OpenSimVersion=4.1
endheader
time	ground_force_1_vx	ground_force_1_vy	ground_force_1_vz	ground_force_1_px	ground_force_1_py	ground_force_1_pz	ground_force_1_mx	ground_force_1_my	ground_force_1_mz	ground_force_2_vx	ground_force_2_vy	ground_force_2_vz	ground_force_2_px	ground_force_2_py	ground_force_2_pz	ground_force_2_mx	ground_force_2_my	ground_force_2_mz
0.83	-11.1045	76.848	-6.59076	1.26069	0	-0.284126	-0	2.33691	-0	0	0	0	-0.00124387	0	-1.92203e-05	0	0	0
0.84	-6.82494	191.343	-9.54727	1.26791	0	-0.288209	-0	3.43934	-0	0	0	0	-0.00124387	0	-1.92203e-05	0	0	0
0.85	6.0007	376.515	-10.6355	1.26676	0	-0.289631	-0	4.07243	-0	0	0	0	-0.00124387	0	-1.92203e-05	0	0	0
0.86	4.28786	603.827	-9.10474	1.2644	0	-0.290213	-0	3.97383	-0	0	0	0	-0.00124387	0	-1.92203e-05	0	0	0
0.87	-24.6447	815.581	-6.05498	1.26384	0	-0.290544	-0	3.10246	-0	0	0	0	-0.00124387	0	-1.92203e-05	0	0	0
0.88	-68.3399	968.375	-3.47755	1.26348	0	-0.291286	-0	1.66551	-0	0	0	0	-0.00124387	0	-1.92203e-05	0	0	0
0.89	-112.67	1076.33	-2.72634	1.26148	0	-0.292195	-0	0.033758	-0	0	0	0	-0.00124387	0	-1.92203e-05	0	0	0
0.9	-143.923	1179.69	-4.25546	1.2573	0	-0.292431	0	-1.4101	0	0	0	0	-0.00124387	0	-1.92203e-05	0	0	0
0.91	-151.301	1290.43	-7.95468	1.24975	0	-0.292196	0	-2.41399	0	0	0	0	-0.00124387	0	-1.92203e-05	0	0	0
0.92	-142.373	1394.62	-12.8562	1.23916	0	-0.291877	0	-2.92661	0	0	0	0	-0.00124387	0	-1.92203e-05	0	0	0
0.93	-128.919	1480.26	-17.5832	1.22741	0	-0.291447	0	-3.07473	0	0	0	0	-0.00124387	0	-1.92203e-05	0	0	0
0.94	-114.773	1545.92	-21.1218	1.21529	0	-0.291031	0	-3.07476	0	0	0	0	-0.00124387	0	-1.92203e-05	0	0	0
0.95	-98.3485	1594.06	-22.6691	1.20248	0	-0.290823	0	-3.12994	0	0	0	0	-0.00124387	0	-1.92203e-05	0	0	0
0.96	-79.298	1626.39	-21.8769	1.18893	0	-0.290741	0	-3.35841	0	0	0	0	-0.00124387	0	-1.92203e-05	0	0	0
0.97	-59.5521	1641.76	-19.4805	1.17511	0	-0.290642	0	-3.77584	0	0	0	0	-0.00124387	0	-1.92203e-05	0	0	0
0.98	-41.699	1636.32	-16.4447	1.16151	0	-0.290604	0	-4.32621	0	0	0	0	-0.00124387	0	-1.92203e-05	0	0	0
0.99	-25.6399	1608.34	-12.6725	1.14808	0	-0.29063	0	-4.9273	0	0	0	0	-0.00124387	0	-1.92203e-05	0	0	0
1	-9.17315	1559.67	-7.76163	1.1344	0	-0.29062	0	-5.49819	0	0	0	0	-0.00124387	0	-1.92203e-05	0	0	0
1.01	8.77801	1492.5	-2.33693	1.12036	0	-0.29062	0	-5.96551	0	0	0	0	-0.00124387	0	-1.92203e-05	0	0	0
1.02	28.2707	1409.03	2.58437	1.10599	0	-0.290666	0	-6.26408	0	0	0	0	-0.00124387	0	-1.92203e-05	0	0	0
1.03	48.6524	1311.48	6.69049	1.09112	0	-0.290761	0	-6.33999	0	0	0	0	-0.00124387	0	-1.92203e-05	0	0	0
1.04	67.7493	1201.92	10.1163	1.07582	0	-0.290958	0	-6.15444	0	0	0	0	-0.00124387	0	-1.92203e-05	0	0	0
1.05	83.474	1082.98	12.838	1.06049	0	-0.291274	0	-5.68923	0	0	0	0	-0.00124387	0	-1.92203e-05	0	0	0
1.06	94.7923	958.334	14.6776	1.0452	0	-0.29168	0	-4.9558	0	0	0	0	-0.00124387	0	-1.92203e-05	0	0	0
1.07	100.849	832.709	15.6054	1.02981	0	-0.292056	0	-4.00383	0	0	0	0	-0.00124387	0	-1.92203e-05	0	0	0
1.08	101.834	711.757	15.8078	1.01446	0	-0.292223	0	-2.92147	0	0	0	0	-0.00124387	0	-1.92203e-05	0	0	0
1.09	97.8084	600.111	15.6092	0.999508	0	-0.292158	0	-1.82298	0	0	0	0	-0.00124387	0	-1.92203e-05	0	0	0
1.1	90.0391	499.453	15.3914	0.98504	0	-0.291886	0	-0.826548	0	0	0	0	-0.00124387	0	-1.92203e-05	0	0	0
1.11	80.7995	409.102	15.4749	0.970789	0	-0.291405	0	-0.029528	0	0	0	0	-0.00124387	0	-1.92203e-05	0	0	0
1.12	71.4346	328.643	16.1108	0.956159	0	-0.29061	-0	0.510745	-0	0	0	0	-0.00124387	0	-1.92203e-05	0	0	0
1.13	62.6509	258.738	17.295	0.941045	0	-0.289206	-0	0.784812	-0	0	0	0	-0.00124387	0	-1.92203e-05	0	0	0
1.14	54.5362	198.98	18.5474	0.926226	0	-0.286994	-0	0.825154	-0	0	0	0	-0.00124387	0	-1.92203e-05	0	0	0
1.15	46.947	148.19	19.2533	0.91139	0	-0.284255	-0	0.690097	-0	0	0	0	-0.00124387	0	-1.92203e-05	0	0	0
1.16	38.7353	106.312	19.2703	0.896094	0	-0.281202	-0	0.448077	-0	0	0	0	-0.00124387	0	-1.92203e-05	0	0	0
1.17	29.5401	74.0423	18.7725	0.880351	0	-0.27681	-0	0.171137	-0	0	0	0	-0.00124387	0	-1.92203e-05	0	0	0
1.18	19.8924	50.5918	17.538	0.864628	0	-0.270339	0	-0.065219	0	0	0	0	-0.00124387	0	-1.92203e-05	0	0	0
1.19	0	0	0	-0.00124387	0	-1.92203e-05	0	0	0	0	0	0	-0.00124387	0	-1.92203e-05	0	0	0
1.2	0	0	0	-0.00124387	0	-1.92203e-05	0	0	0	0	0	0	-0.00124387	0	-1.92203e-05	0	0	0
1.21	0	0	0	-0.00124387	0	-1.92203e-05	0	0	0	0	0	0	-0.00124387	0	-1.92203e-05	0	0	0
1.22	0	0	0	-0.00124387	0	-1.92203e-05	0	0	0	0	0	0	-0.00124387	0	-1.92203e-05	0	0	0
1.23	0	0	0	-0.00124387	0	-1.92203e-05	0	0	0	-14.892	68.9999	-6.94419	1.22069	0	-0.31424	-0	1.50623	-0
1.24	0	0	0	-0.00124387	0	-1.92203e-05	0	0	0	-14.8839	184.305	-13.6583	1.23614	0	-0.313216	-0	2.42628	-0
1.25	0	0	0	-0.00124387	0	-1.92203e-05	0	0	0	-1.73529	398.279	-18.658	1.23412	0	-0.3102	-0	3.34573	-0
1.26	0	0	0	-0.00124387	0	-1.92203e-05	0	0	0	6.24002	677.976	-22.1772	1.23061	0	-0.308481	-0	4.0704	-0
1.27	0	0	0	-0.00124387	0	-1.92203e-05	0	0	0	-9.02256	924.131	-24.7712	1.22855	0	-0.30786	-0	4.39114	-0
1.28	0	0	0	-0.00124387	0	-1.92203e-05	0	0	0	-38.6528	1064.97	-25.9768	1.22606	0	-0.308803	-0	4.15885	-0
1.29	0	0	0	-0.00124387	0	-1.92203e-05	0	0	0	-70.8737	1130.23	-22.7682	1.22143	0	-0.311537	-0	3.38757	-0
1.3	0	0	0	-0.00124387	0	-1.92203e-05	0	0	0	-98.6381	1191.09	-12.733	1.21543	0	-0.313907	-0	2.32725	-0
1.31	0	0	0	-0.00124387	0	-1.92203e-05	0	0	0	-112.497	1270.54	-0.635048	1.20804	0	-0.31515	-0	1.41452	-0
1.32	0	0	0	-0.00124387	0	-1.92203e-05	0	0	0	-108.505	1351.71	6.19963	1.19835	0	-0.316745	-0	1.07903	-0
1.33	0	0	0	-0.00124387	0	-1.92203e-05	0	0	0	-92.7731	1427.53	8.01958	1.18673	0	-0.318181	-0	1.53522	-0
1.34	0	0	0	-0.00124387	0	-1.92203e-05	0	0	0	-75.1215	1499.95	8.82525	1.17422	0	-0.318579	-0	2.71824	-0
1.35	0	0	0	-0.00124387	0	-1.92203e-05	0	0	0	-57.0307	1559.93	8.65295	1.16136	0	-0.318849	-0	4.36921	-0
1.36	0	0	0	-0.00124387	0	-1.92203e-05	0	0	0	-36.8965	1598.27	6.81426	1.14817	0	-0.319312	-0	6.16747	-0
1.37	0	0	0	-0.00124387	0	-1.92203e-05	0	0	0	-15.5971	1615.11	4.51809	1.13457	0	-0.31933	-0	7.84092	-0
1.38	0	0	0	-0.00124387	0	-1.92203e-05	0	0	0	6.57974	1608.68	1.68344	1.12078	0	-0.319093	-0	9.22735	-0
1.39	0	0	0	-0.00124387	0	-1.92203e-05	0	0	0	27.5234	1575.24	-2.21787	1.10736	0	-0.318908	-0	10.2745	-0
1.4	0	0	0	-0.00124387	0	-1.92203e-05	0	0	0	44.8462	1516.45	-6.23984	1.09453	0	-0.318345	-0	10.9998	-0
1.41	0	0	0	-0.00124387	0	-1.92203e-05	0	0	0	59.9744	1436.2	-10.2386	1.08197	0	-0.317413	-0	11.444	-0
1.42	0	0	0	-0.00124387	0	-1.92203e-05	0	0	0	75.4131	1339.1	-14.8403	1.06906	0	-0.316499	-0	11.6342	-0
1.43	0	0	0	-0.00124387	0	-1.92203e-05	0	0	0	90.7606	1231.33	-19.2165	1.05549	0	-0.315343	-0	11.5678	-0
1.44	0	0	0	-0.00124387	0	-1.92203e-05	0	0	0	103.709	1116.34	-22.7094	1.04153	0	-0.313753	-0	11.227	-0
1.45	0	0	0	-0.00124387	0	-1.92203e-05	0	0	0	113.144	994.804	-26.1913	1.02739	0	-0.312273	-0	10.6025	-0
1.46	0	0	0	-0.00124387	0	-1.92203e-05	0	0	0	118.142	869.865	-29.5216	1.01302	0	-0.311148	-0	9.71061	-0
1.47	0	0	0	-0.00124387	0	-1.92203e-05	0	0	0	117.434	746.482	-31.3023	0.998599	0	-0.309883	-0	8.60502	-0
1.48	0	0	0	-0.00124387	0	-1.92203e-05	0	0	0	111.548	627.382	-31.704	0.984719	0	-0.30863	-0	7.37845	-0
1.49	0	0	0	-0.00124387	0	-1.92203e-05	0	0	0	101.829	514.929	-31.6747	0.9713	0	-0.308113	-0	6.14085	-0
1.5	0	0	0	-0.00124387	0	-1.92203e-05	0	0	0	89.1485	413.262	-30.5791	0.957988	0	-0.307726	-0	4.98544	-0
1.51	0	0	0	-0.00124387	0	-1.92203e-05	0	0	0	75.1092	324.108	-27.7739	0.944628	0	-0.306605	-0	3.96643	-0
